<svg width="240" height="600" xmlns="http://www.w3.org/2000/svg" xmlns:svg="http://www.w3.org/2000/svg">
 <g class="layer">
  <title>Layer 1</title>
  <g id="svg_50">
   <g id="freepik--speech-bubble--inject-2">
    <path d="m179.76,3.31l-45.54,0a14.02,12.15 0 0 0 -14.02,12.15l0,34.34a14.02,12.15 0 0 0 14.02,12.16l13.3,0l-3.17,10.83l12.68,-10.83l22.81,0a14.03,12.16 0 0 0 14.03,-12.16l0,-34.34a14.02,12.15 0 0 0 -14.11,-12.15z" fill="#407BFF" id="svg_1"/>
    <path d="m179.76,3.31l-45.54,0a14.02,12.15 0 0 0 -14.02,12.15l0,34.34a14.02,12.15 0 0 0 14.02,12.16l13.3,0l-3.17,10.83l12.68,-10.83l22.81,0a14.03,12.16 0 0 0 14.03,-12.16l0,-34.34a14.02,12.15 0 0 0 -14.11,-12.15z" fill="#fff" id="svg_2" opacity="0.7"/>
    <circle cx="156.99" cy="32.49" fill="#fff" id="svg_3" r="11.76"/>
    <path d="m156.99,12.9a22.6,19.59 0 1 0 22.6,19.59a22.59,19.58 0 0 0 -22.6,-19.59zm12.83,13.74l-13.62,13.91a2.03,1.76 0 0 1 -1.59,0.63a2.06,1.79 0 0 1 -1.59,-0.63l-8.87,-9.05a2.07,1.8 0 1 1 3.17,-2.32l7.28,7.43l12.04,-12.28a2.07,1.8 0 0 1 3.17,2.32l0,-0.01l0.01,0z" fill="#bb004e" id="svg_4"/>
   </g>
   <g id="freepik--Character--inject-2">
    <path d="m205.07,289.86s-34.8,-4.16 -87.5,9.47c0,0 -8.47,-89.23 -7.47,-101.5s81.39,-8.67 81.39,-8.67s2,35.72 7.23,57.27s9.07,39.3 6.36,43.44l0,-0.01l-0.01,0z" fill="#407BFF" id="svg_5"/>
    <path d="m205.07,289.86s-34.8,-4.16 -87.5,9.47c0,0 -8.47,-89.23 -7.47,-101.5s81.39,-8.67 81.39,-8.67s2,35.72 7.23,57.27s9.07,39.3 6.36,43.44l0,-0.01l-0.01,0z" id="svg_6" opacity="0.2"/>
    <polygon fill="#e4897b" id="svg_7" points="92.14350128173828,585.2798461914062 106.33159637451172,589.084716796875 109.70874786376953,568.1672973632812 111.52717590332031,556.9798583984375 97.33914947509766,553.1748657226562 94.921142578125,568.1672973632812 92.14350128173828,585.2798461914062 "/>
    <polygon fill="#e4897b" id="svg_8" points="173.7150115966797,586.3778076171875 188.34268188476562,588.2139892578125 188.4825897216797,568.1672973632812 188.58251953125,555.7114868164062 173.934814453125,553.8942260742188 173.83489990234375,568.1672973632812 173.7150115966797,586.3778076171875 "/>
    <polygon id="svg_9" opacity="0.2" points="173.934814453125,553.8942260742188 173.83489990234375,568.1672973632812 188.4825897216797,568.1672973632812 188.58251953125,555.7114868164062 173.934814453125,553.8942260742188 "/>
    <polygon id="svg_10" opacity="0.2" points="94.921142578125,568.1672973632812 109.70874786376953,568.1672973632812 111.52717590332031,556.9798583984375 97.33914947509766,553.1748657226562 94.921142578125,568.1672973632812 "/>
    <path d="m29.16,205.15l-14.08,-3.94l2.58,15.23s12.79,2.78 13.98,-3.52l-2.48,-7.77z" fill="#e4897b" id="svg_11"/>
    <polygon fill="#e4897b" id="svg_12" points="1,204.7531280517578 7.914236068725586,217.13319396972656 17.646055221557617,216.45172119140625 15.06820297241211,201.2132110595703 1,204.7531280517578 "/>
    <polygon fill="#e4897b" id="svg_13" points="48.60004806518555,209.05014038085938 25.459503173828125,204.14735412597656 23.36122703552246,214.78587341308594 44.363609313964844,219.63194274902344 48.60004806518555,209.05014038085938 "/>
    <path d="m118.6,199.43l-1.36,1.54c-2.92,3.24 -9.99,11.06 -17.36,17.79c-6,5.49 -11.99,10.28 -15.99,11.24c-11.33,2.76 -52.51,-8.73 -52.51,-8.73l4.26,-15.82s38.37,4.83 41.35,4.83c2.26,0 25.6,-32.03 31.25,-34.65l10.37,23.81l-0.01,0l0,-0.01z" fill="#407BFF" id="svg_14"/>
    <path d="m117.25,200.97c-2.92,3.24 -9.99,11.06 -17.36,17.79c1.48,-11.1 5.77,-21.27 11.44,-27.71a10.55,9.99 0 0 1 1.8,-1.67l4.13,11.58l-0.01,0l0,0.01z" id="svg_15" opacity="0.2"/>
    <path d="m92.33,583.18l16.11,-0.39a1.28,1.21 0 0 1 1.28,0.91l3.4,12.29a2.14,2.02 0 0 1 -2,2.53c-5.82,0 -14.23,0 -21.52,0.13c-8.56,0.22 -13.98,-0.17 -23.97,0c-6,0.16 -8,-5.57 -5.44,-6.15c11.45,-2.69 18.95,-2.15 28.69,-8.22a6.97,6.61 0 0 1 3.45,-1.1l-0.01,0l0.01,0z" fill="#263238" id="svg_16"/>
    <path d="m90.92,585.15l0,0c-2.35,0.49 -6.55,1.16 -8.24,-0.16a2,1.89 0 0 1 -0.72,-1.59a1.07,1.02 0 0 1 0.54,-0.89c1.78,-1 7.79,1.71 8.49,2.01a0.38,0.35 0 0 1 0.2,0.33a0.35,0.33 0 0 1 -0.28,0.3l0.01,0zm-8,-2.1l-0.12,0a0.43,0.42 0 0 0 -0.22,0.35a1.3,1.23 0 0 0 0.46,1.04c0.93,0.74 3.38,0.81 6.61,0.21c-2.34,-0.93 -5.59,-2.01 -6.69,-1.62l-0.04,0l-0.01,0.01l0.01,0.01z" fill="#407BFF" id="svg_17"/>
    <path d="m90.92,585.15l-0.24,0c-1.82,-0.72 -5.45,-3.64 -5.26,-5.2c0,-0.38 0.32,-0.85 1.28,-0.97a2.7,2.56 0 0 1 2,0.51c2,1.42 2.46,5.15 2.49,5.31a0.36,0.34 0 0 1 -0.14,0.3l-0.14,0.05l0.01,0zm-4.48,-5.44c-0.29,0.09 -0.32,0.25 -0.32,0.3c-0.12,0.95 2.35,3.26 4.22,4.24a8,7.58 0 0 0 -2.12,-4.24a1.8,1.71 0 0 0 -1.43,-0.38a1.22,1.16 0 0 0 -0.35,0.08z" fill="#407BFF" id="svg_18"/>
    <path d="m174.29,583.18l16.11,-0.39a1.3,1.23 0 0 1 1.3,0.91l3.38,12.29a2.12,2.01 0 0 1 -2,2.53c-5.82,0 -14.23,0 -21.54,0.13c-8.53,0.22 -13.98,-0.17 -23.97,0c-6,0.16 -8,-5.57 -5.44,-6.15c11.45,-2.69 18.92,-2.15 28.68,-8.22a6.97,6.61 0 0 1 3.49,-1.1l-0.01,0z" fill="#263238" id="svg_19"/>
    <path d="m172.92,585.15l0,0c-2.35,0.49 -6.58,1.16 -8.24,-0.16a2,1.89 0 0 1 -0.72,-1.59a1.07,1.02 0 0 1 0.54,-0.89c1.75,-1 7.79,1.71 8.47,2.01a0.32,0.3 0 0 1 0.2,0.33a0.36,0.34 0 0 1 -0.26,0.3l0.01,0zm-8,-2.1l-0.12,0a0.4,0.38 0 0 0 -0.2,0.35a1.25,1.19 0 0 0 0.46,1.04c0.93,0.74 3.35,0.81 6.61,0.21c-2.38,-0.93 -5.64,-2.01 -6.73,-1.62l-0.03,0l0,0.01l0.01,0.01z" fill="#407BFF" id="svg_20"/>
    <path d="m172.92,585.15l-0.26,0c-1.8,-0.72 -5.45,-3.64 -5.23,-5.2c0,-0.38 0.29,-0.85 1.25,-0.97a2.66,2.52 0 0 1 2,0.51a9.99,9.47 0 0 1 2.49,5.31a0.32,0.3 0 0 1 -0.14,0.3l-0.12,0.05l0.01,0zm-4.49,-5.44c-0.28,0.09 -0.29,0.25 -0.29,0.3c-0.14,0.95 2.35,3.26 4.22,4.24a8.21,7.77 0 0 0 -2.12,-4.24a1.82,1.72 0 0 0 -1.43,-0.38l-0.36,0.08l-0.01,0l-0.01,0z" fill="#407BFF" id="svg_21"/>
    <path d="m203.89,281.72c7.75,31.82 -5.55,282.16 -5.55,282.16l-25.7,0l-10.99,-208.62l-40.46,208.62l-27.48,-1.89c17.99,-161.63 33.84,-258.11 33.84,-258.11l0,-12.19l76.36,-9.98l-0.01,0l-0.01,0.01z" fill="#263238" id="svg_22"/>
    <path d="m93.71,562l27.48,1.89l31.85,-164.24l8.61,-44.39l10.99,208.62l25.7,0s13.3,-250.34 5.55,-282.16l-76.4,9.98l0,12.19s-15.82,96.48 -33.79,258.11l0.01,0z" fill="#fff" id="svg_23" opacity="0.4"/>
    <path d="m190.04,163.86a324.42,307.32 0 0 0 1.22,45.62c1.07,10.6 2.56,20.62 4.13,29.64c3.7,21.18 7.89,37.07 8.49,42.61l-76.4,9.98c-27.86,-73.83 -17.36,-116.72 -17.36,-116.72a149.52,141.63 0 0 1 17.53,-5.67c1.25,-0.33 2.53,-0.63 3.85,-0.91a286.13,271.05 0 0 1 32.47,-4.24c2,-0.17 4.17,-0.3 6.22,-0.39c10.43,-0.49 19.84,0.09 19.84,0.09l0.01,-0.01z" fill="#263238" id="svg_24"/>
    <path d="m149.15,130.65c0.56,10.12 1.7,29.14 10.59,33.96c0,0 -5.54,9.98 -17.5,11c-9.06,0.76 -8.46,-7.71 -8.46,-7.71c5.23,-3.69 3.99,-9.95 0,-17.03l15.36,-20.22l0.01,0z" fill="#e4897b" id="svg_25"/>
    <path d="m142.88,138.9l-9.03,11.96a34.77,32.93 0 0 1 2.39,5.11c4.2,-1.59 9.01,-7.58 8.32,-11.91a15.58,14.76 0 0 0 -1.68,-5.17l0,0.01z" id="svg_26" opacity="0.2"/>
    <path d="m110.19,110.26c-1.74,5.27 -0.78,16.05 6.96,12.55s-3.95,-21.58 -6.96,-12.55z" fill="#263238" id="svg_27"/>
    <path d="m150.15,117.37c0.86,13.5 2,21.35 -4.22,29c-9.45,11.49 -27.76,7.21 -32.88,-5.82c-4.59,-11.74 -5.22,-31.84 8,-38.66a19.7,18.66 0 0 1 29.09,15.47l0.01,0.01z" fill="#e4897b" id="svg_28"/>
    <path d="m140.16,110.03l0,-15.14s16.95,-1.19 16.18,7.03c9.39,4.41 4.95,18.25 -7.65,25.03c-6.91,-5.24 -6.11,-17.85 -6.11,-17.85c-0.74,0.35 -1.57,0.66 -2.42,0.95l0,-0.01l0,-0.01z" fill="#263238" id="svg_29"/>
    <path d="m157.05,127.9a13.29,12.59 0 0 1 -5.69,8.15c-3.99,2.48 -7.46,-0.56 -7.6,-4.83c-0.12,-3.78 1.78,-9.77 6.37,-10.52a6.15,5.83 0 0 1 6.91,7.2l0.01,0z" fill="#e4897b" id="svg_30"/>
    <path d="m129.12,123.39c0.14,1.1 -0.36,2.05 -1.11,2.11s-1.48,-0.74 -1.62,-1.89s0.36,-2.05 1.1,-2.11s1.5,0.72 1.64,1.89l-0.01,0z" fill="#263238" id="svg_31"/>
    <path d="m116.04,124.78c0.14,1.1 -0.36,2.05 -1.11,2.11s-1.48,-0.74 -1.62,-1.89s0.36,-2.05 1.11,-2.11s1.43,0.8 1.62,1.89z" fill="#263238" id="svg_32"/>
    <path d="m120.27,124.87a40.22,38.11 0 0 1 -4.45,9.61a6.87,6.51 0 0 0 5.62,0.29l-1.16,-9.9l-0.01,0z" fill="#de5753" id="svg_33"/>
    <path d="m128.16,138.29a11.71,11.1 0 0 1 -1.5,0.26a0.35,0.33 0 1 1 0,-0.64a9.2,8.71 0 0 0 7.04,-4.16a0.32,0.3 0 0 1 0.43,-0.16a0.35,0.33 0 0 1 0.15,0.43a9.42,8.92 0 0 1 -6.14,4.25l0.01,0.01l0.01,0.01z" fill="#263238" id="svg_34"/>
    <path d="m132.62,118.99a0.72,0.68 0 0 1 -0.68,-0.18a5.54,5.24 0 0 0 -4.62,-1.68a0.67,0.63 0 0 1 -0.79,-0.51a0.68,0.64 0 0 1 0.54,-0.76a6.83,6.47 0 0 1 5.86,2.06a0.67,0.63 0 0 1 0,0.91a0.79,0.76 0 0 1 -0.29,0.17l-0.01,0l-0.01,-0.01z" fill="#263238" id="svg_35"/>
    <path d="m109.87,121.12a0.56,0.53 0 0 1 -0.4,0a0.68,0.64 0 0 1 -0.42,-0.81a6.69,6.34 0 0 1 4.41,-4.12a0.68,0.64 0 0 1 0.35,1.25a5.22,4.94 0 0 0 -3.45,3.3a0.67,0.63 0 0 1 -0.47,0.39l-0.01,0l-0.01,-0.01z" fill="#263238" id="svg_36"/>
    <path d="m147.68,115.63s-9.99,-3.47 -14.55,-8.96c0,0 -9.07,2.26 -10.92,5.67a4.52,4.28 0 0 1 -0.78,-5.67s-6.79,1.37 -8.14,5.67a5.72,5.41 0 0 1 -3.2,-5.67s-3.02,1.08 -3.99,5.67c0,0 -7.5,-14.8 17.27,-19.04a18.46,17.49 0 0 0 -5.82,-0.93s17.28,-6.61 30.97,-0.56s11.31,17.74 -0.84,23.81l0,0.01z" fill="#263238" id="svg_37"/>
    <path d="m209.79,294.48l-23.97,3.03s-9.89,-65.48 -14.25,-86.62l0,-45.13l12.52,-3.13l9.71,3.13a233.8,221.48 0 0 1 6.14,27.64c1.18,7.08 2.24,14.66 3.17,22.32c1.3,10.45 2.38,21.09 3.3,31.04c1.43,16.07 2.39,30.28 2.92,38.98c0.29,5.45 0.46,8.75 0.46,8.75l0,-0.01z" fill="#407BFF" id="svg_38"/>
    <path d="m171.58,210.84s2,-31.86 12.52,-48.29c0,0 -0.26,-4.69 -2.35,-5.45s-10.17,3.78 -10.17,3.78s-5.01,-3.26 -6.11,-1.75s-3.77,11.58 6.11,51.7l0,0.01z" fill="#407BFF" id="svg_39"/>
    <path d="m171.58,210.84s2,-31.86 12.52,-48.29c0,0 -0.26,-4.69 -2.35,-5.45s-10.17,3.78 -10.17,3.78s-5.01,-3.26 -6.11,-1.75s-3.77,11.58 6.11,51.7l0,0.01z" fill="#fff" id="svg_40" opacity="0.7"/>
    <path d="m117.07,303.2l2.74,1.89s-3.99,-21.1 -2.35,-74.48c0,-2.57 0.18,-5.06 0.28,-7.42c2,-45.16 9.43,-53.38 9.99,-53.88l-6.91,2.23l-12.52,4.08c-3.77,38.53 8.79,127.56 8.79,127.56l-0.01,0.01l-0.01,0.01z" fill="#407BFF" id="svg_41"/>
    <path d="m118.14,215.41s-6.91,-30.96 -4.86,-41.64s9.43,-5.92 9.43,-5.92s6.78,-5.19 8.79,0.53c0,0 -9.31,6.21 -13.37,47.04l0.01,0l0,-0.01z" fill="#407BFF" id="svg_42"/>
    <path d="m118.14,215.41s-6.91,-30.96 -4.86,-41.64s9.43,-5.92 9.43,-5.92s6.78,-5.19 8.79,0.53c0,0 -9.31,6.21 -13.37,47.04l0.01,0l0,-0.01z" fill="#fff" id="svg_43" opacity="0.7"/>
    <path d="m203.07,215.64c-10.23,-5.44 -11.59,-19.61 -11.59,-19.61c0.61,-0.22 4.41,-1.46 8.42,-2.71c1.18,7.08 2.24,14.66 3.17,22.32l0,-0.01l0,0.01z" id="svg_44" opacity="0.2"/>
    <path d="m153.03,399.65l8.61,-44.39l-1.66,-23.49s-11.81,40.73 -6.96,67.88l0.01,0z" id="svg_45" opacity="0.2"/>
    <path d="m209.29,285.66c-6.43,-0.42 -11.99,-0.81 -11.99,-0.81l-1.22,-24.78a9.29,8.8 0 0 1 6.73,-1.17a73.58,69.7 0 0 0 3.58,-12.21c1.39,16.07 2.38,30.31 2.9,38.98l-0.01,0l0.01,-0.01z" id="svg_46" opacity="0.2"/>
    <polygon fill="#e4897b" id="svg_47" points="211.48330688476562,246.66368103027344 198.95376586914062,265.7259521484375 208.86550903320312,271.1209716796875 220.63558959960938,253.95164489746094 211.48330688476562,246.66368103027344 "/>
    <path d="m193.26,165.45c8.43,0.87 44.29,47.47 45.86,61.52s-21.06,38.29 -21.06,38.29l-15.11,-8.42s15.35,-22.35 16.14,-28.39s-28.08,-30.44 -28.08,-30.44a58.17,55.1 0 0 1 -3.56,-17.53c-0.4,-10.26 5.8,-15.04 5.8,-15.04l0.01,0.01z" fill="#407BFF" id="svg_48"/>
    <path d="m196.05,260.09s12.9,2.61 18.09,10.3c0,0 -5.4,15.99 -9.25,17.74s-13.41,1.75 -13.41,1.75s-0.61,-17.79 4.58,-29.78l-0.01,0l0,-0.01z" fill="#407BFF" id="svg_49"/>
   </g>
  </g>
 </g>
</svg>